<?xml version="1.0" encoding="utf-8"?>
<svg version="1.2" baseProfile="tiny" x="0in" y="0in" width="2.14in" height="0.526444in" viewBox="0 0 154.08 37.904" xmlns="http://www.w3.org/2000/svg">
  <g partid="854342550">
    <g id="breadboard">
      <g>
        <circle cy="18.951" cx="26.652" r="2.988" id="connector3pin" fill="none" stroke-width="0.254" stroke="#9A916C"/>
        <circle cy="18.951" cx="5.771" r="2.988" id="connector1pin" fill="none" stroke-width="0.254" stroke="#9A916C"/>
        <circle cy="18.951" cx="127.452" r="2.988" id="connector2pin" fill="none" stroke-width="0.254" stroke="#9A916C"/>
        <circle cy="18.951" cx="148.331" r="2.988" id="connector0pin" fill="none" stroke-width="0.254" stroke="#9A916C"/>
      </g>
      <g>
        <g>
          <g>
            <g>
              <path fill="#898989" d="M19.496,21.873l0,-7.408l11.575,0c2.046,0,3.703,1.658,3.703,3.703c0,2.044,-1.66,3.703,-3.703,3.703L19.496,21.873L19.496,21.873z"/>
              <g>
                <path fill="#DBDBDB" d="M2.146,28.196C1.142,28.196,0,23.706,0,18.17S1.141,8.142,2.148,8.142l2.095,0l0,20.053L2.146,28.196L2.146,28.196z"/>
                <path fill="#898989" d="M2.146,28.196c-1.004,0,-1.487,-4.49,-1.487,-10.027c0,-5.536,0.483,-10.026,1.487,-10.026l2.585,0l0,20.053L2.146,28.196L2.146,28.196z"/>
                <g>
                  <g>
                    <path fill="#7C7C7C" d="M30.811,14.225L30.811,8.142L4.241,8.142l0,20.053l26.57,0l0,-6.086l-1.435,0l0,-7.885L30.811,14.225L30.811,14.225zM17.693,20.473L6.733,20.473l0,-4.611l10.96,0c0.997,0,1.807,1.033,1.807,2.306C19.496,19.441,18.691,20.473,17.693,20.473z"/>
                  </g>
                </g>
                <g>
                  <rect x="4.002" height="20.039" y="8.156" width="0.845" fill="#3D3D3D"/>
                  <rect x="3.159" height="20.039" y="8.156" width="0.843" fill="#666666"/>
                  <rect x="2.314" height="20.039" y="8.156" width="0.847" fill="#777777"/>
                </g>
                <path fill="#898989" d="M5.778,18.17c0,2.686,-0.792,4.862,-1.765,4.862c-0.784,0,-0.992,-2.178,-0.992,-4.862c0,-2.686,0.21,-4.862,0.992,-4.862C4.987,13.305,5.778,15.482,5.778,18.17z"/>
                <path enable-background="new    " stroke-miterlimit="10" stroke-linecap="round" opacity="0.5" fill="none" stroke-width="0.2171" d="M4.012,23.032c-0.551,0,-0.992,-2.178,-0.992,-4.862c0,-2.686,0.444,-4.862,0.992,-4.862" stroke="#A5A5A5"/>
                <path stroke-miterlimit="10" fill="none" stroke-width="0.3256" d="M4.011,23.032c0.977,0,1.767,-2.178,1.767,-4.862c0,-2.686,-0.792,-4.863,-1.767,-4.863" stroke="#606060"/>
                <g>
                  <path stroke-miterlimit="10" stroke-linecap="round" fill="none" stroke-width="0.2809" d="M4.83,21.334c0.322,-0.771,0.533,-1.896,0.533,-3.165c0,-1.271,-0.211,-2.392,-0.533,-3.163" stroke="#A5A5A5"/>
                </g>
              </g>
              <rect x="29.052" enable-background="new    " height="7.886" y="14.225" opacity="0.2" width="0.322" fill="#FFFFFF"/>
            </g>
            <g>
              <path fill="#898989" d="M134.601,21.873l0,-7.408l-11.572,0c-2.043,0,-3.703,1.658,-3.703,3.703c0,2.044,1.662,3.703,3.703,3.703L134.601,21.873L134.601,21.873z"/>
              <g>
                <path fill="#DBDBDB" d="M151.954,28.196c1.002,0,2.148,-4.49,2.148,-10.027c0,-5.536,-1.145,-10.026,-2.148,-10.026l-2.096,0l0,20.053L151.954,28.196L151.954,28.196z"/>
                <path fill="#898989" d="M151.954,28.196c1.002,0,1.486,-4.49,1.486,-10.027c0,-5.536,-0.484,-10.026,-1.486,-10.026l-2.584,0l0,20.053L151.954,28.196L151.954,28.196z"/>
                <g>
                  <g>
                    <path fill="#7C7C7C" d="M123.288,8.142l0,6.082l1.438,0l0,7.885l-1.438,0l0,6.086l26.57,0L149.858,8.142L123.288,8.142zM147.368,20.473l-10.959,0c-0.998,0,-1.811,-1.035,-1.811,-2.305c0,-1.273,0.809,-2.305,1.811,-2.305l10.959,0L147.368,20.473z"/>
                  </g>
                </g>
                <g>
                  <rect x="149.253" height="20.039" y="8.156" width="0.844" fill="#3D3D3D"/>
                  <rect x="150.097" height="20.039" y="8.156" width="0.844" fill="#666666"/>
                  <rect x="150.94" height="20.039" y="8.156" width="0.846" fill="#777777"/>
                </g>
                <path fill="#898989" d="M148.321,18.17c0,2.686,0.795,4.862,1.764,4.862c0.785,0,0.996,-2.178,0.996,-4.862c0,-2.686,-0.213,-4.862,-0.996,-4.862C149.114,13.305,148.321,15.482,148.321,18.17z"/>
                <path enable-background="new    " stroke-miterlimit="10" stroke-linecap="round" opacity="0.5" fill="none" stroke-width="0.2171" d="M150.085,23.032c0.553,0,0.996,-2.178,0.996,-4.862c0,-2.686,-0.445,-4.862,-0.996,-4.862" stroke="#A5A5A5"/>
                <path stroke-miterlimit="10" fill="none" stroke-width="0.3256" d="M150.089,23.032c-0.975,0,-1.766,-2.178,-1.766,-4.862c0,-2.686,0.793,-4.862,1.766,-4.862" stroke="#606060"/>
                <g>
                  <path stroke-miterlimit="10" stroke-linecap="round" fill="none" stroke-width="0.2809" d="M149.269,21.334c-0.32,-0.771,-0.527,-1.896,-0.527,-3.165c0,-1.271,0.207,-2.392,0.529,-3.163" stroke="#A5A5A5"/>
                </g>
              </g>
              <rect x="124.726" enable-background="new    " height="7.886" y="14.225" opacity="0.2" width="0.324" fill="#FFFFFF"/>
            </g>
          </g>
          <g>
            <path d="M147.366,32.397c0,2.033,-1.934,3.692,-4.291,3.692L8.221,36.089c-2.361,0,-4.292,-1.659,-4.292,-3.692L3.929,5.324c0,-2.03,1.931,-3.693,4.292,-3.693l134.854,0c2.359,0,4.291,1.663,4.291,3.693L147.366,32.397L147.366,32.397z" style="fill: rgb(93, 129, 206);"/>
            <path d="M106.077,1.688l37.283,0c2.361,0,4.293,1.66,4.293,3.693l0,27.081c0,2.029,-1.932,3.691,-4.293,3.691l-37.283,0L106.077,1.688z" style="fill: rgb(93, 129, 206);"/>
            <path enable-background="new    " opacity="0.35" d="M8.549,34.678c-1.779,0,-4.046,-1.418,-4.046,-3.095l0,-7.748c0,1.679,2.267,4.31,4.046,4.31l133.87,0c1.777,0,4.047,-2.631,4.047,-4.31l0,7.751c0,1.681,-2.27,3.093,-4.047,3.093L8.549,34.678L8.549,34.678z" style="fill: rgb(61, 84, 134);"/>
            <path fill="#B2B2B2" d="M147.245,18.632c0,7.717,-0.34,13.975,-0.766,13.975c-0.422,0,-0.422,-27.946,0,-27.946C146.907,4.662,147.245,10.917,147.245,18.632"/>
            <path fill="#606060" d="M146.96,23.394c-0.281,0,-0.281,-10.322,0,-10.322l-0.008,0.001c0,0.637,0.305,1.15,0.305,1.15c0.738,0,1.34,0.516,1.34,1.154l0,5.709c0,0.635,-0.604,1.151,-1.34,1.151c0,0,-0.305,0.516,-0.305,1.151L146.96,23.394L146.96,23.394z"/>
          </g>
          <g transform="matrix(1, 0, 0, 1, -6.747406, 0.341641)">
            <g transform="matrix(1, 0, 0, 1, 32.9927, 22.1111)">
              <text style="font-family: &quot;OCR A&quot;; font-size: 7px; font-weight: 700; white-space: pre;" x="5.978" y="-1.367">IFR 14500 600mAh 3.2V</text>
            </g>
          </g>
          <g>
            <g opacity="0.35">
              <g>
                <path fill="#FFFFFF" d="M126.335,5.427c-1.811,0,-3.289,-0.542,-3.289,-1.207s-1.479,-1.207,-3.287,-1.207L34.514,3.013c-1.809,0,-3.288,0.542,-3.288,1.207s-1.478,1.207,-3.288,1.207L10.941,5.427c-1.811,0,-3.287,1.479,-3.287,3.288l0,2.158c0,1.81,1.477,3.287,3.287,3.287l128.97,0c1.811,0,3.289,-1.479,3.289,-3.287L143.2,8.716c0,-1.81,-1.479,-3.288,-3.289,-3.288L126.335,5.427L126.335,5.427z"/>
                <path fill="#FFFFFF" d="M126.335,5.427c-1.811,0,-3.289,-0.542,-3.289,-1.207s-1.479,-1.207,-3.287,-1.207L34.514,3.013c-1.809,0,-3.288,0.542,-3.288,1.207s-1.478,1.207,-3.288,1.207L10.941,5.427c-1.811,0,-3.287,1.479,-3.287,3.288l0,2.158c0,1.81,1.477,3.287,3.287,3.287l128.97,0c1.811,0,3.289,-1.479,3.289,-3.287L143.2,8.716c0,-1.81,-1.479,-3.288,-3.289,-3.288L126.335,5.427L126.335,5.427z"/>
              </g>
            </g>
          </g>
          <g>
            <g>
              <g>
                <path fill="#DBDBDB" d="M144.901,1.753c0,-0.558,-0.715,-1.753,-3.814,-1.753l-12.545,0c-3.092,0,-3.814,1.195,-3.814,1.753l0,1.874l20.176,0L144.901,1.753L144.901,1.753z"/>
              </g>
              <g>
                <path fill="#898989" d="M144.901,1.753c0,-0.386,-0.715,-1.527,-3.814,-1.437l-12.545,0c-3.092,-0.092,-3.814,1.137,-3.814,1.437L124.728,3.51l20.176,0L144.901,1.753L144.901,1.753z"/>
              </g>
              <g>
                <rect x="124.726" height="0.773" y="3.249" width="20.176" fill="#3D3D3D"/>
                <rect x="124.726" height="0.774" y="2.473" width="20.176" fill="#666666"/>
                <rect x="124.726" height="0.772" y="1.701" width="20.176" fill="#777777"/>
              </g>
            </g>
            <g>
              <g>
                <path fill="#DBDBDB" d="M144.901,36.157c0,0.555,-0.715,1.751,-3.814,1.751l-12.545,0c-3.092,0,-3.814,-1.196,-3.814,-1.751l0,-1.872l20.176,0L144.901,36.157L144.901,36.157z"/>
              </g>
              <g>
                <path fill="#898989" d="M144.901,36.157c0,0.386,-0.715,1.525,-3.814,1.438l-12.545,0c-3.092,0.089,-3.814,-1.136,-3.814,-1.438l0,-1.758l20.176,0L144.901,36.157L144.901,36.157z"/>
              </g>
              <g>
                <rect x="124.726" height="0.775" y="33.886" width="20.176" fill="#3D3D3D"/>
                <rect x="124.726" height="0.77" y="34.663" width="20.176" fill="#666666"/>
                <rect x="124.726" height="0.774" y="35.431" width="20.176" fill="#777777"/>
              </g>
            </g>
            <g>
              <g>
                <g>
                  <path fill="#DBDBDB" d="M9.199,1.753C9.199,1.195,9.916,0,13.016,0l12.541,0c3.096,0,3.816,1.195,3.816,1.753l0,1.874L9.199,3.627L9.199,1.753z"/>
                </g>
                <g>
                  <path fill="#898989" d="M9.199,1.753c0,-0.386,0.716,-1.527,3.817,-1.437l12.541,0c3.096,-0.092,3.816,1.137,3.816,1.437L29.373,3.51L9.199,3.51L9.199,1.753z"/>
                </g>
                <g>
                  <rect x="9.199" height="0.773" y="3.249" width="20.176" fill="#3D3D3D"/>
                  <rect x="9.199" height="0.774" y="2.473" width="20.176" fill="#666666"/>
                  <rect x="9.199" height="0.772" y="1.701" width="20.176" fill="#777777"/>
                </g>
              </g>
            </g>
            <g>
              <g>
                <path fill="#DBDBDB" d="M9.199,36.157c0,0.555,0.716,1.751,3.817,1.751l12.541,0c3.096,0,3.816,-1.196,3.816,-1.751l0,-1.872L9.199,34.285L9.199,36.157z"/>
              </g>
              <g>
                <path fill="#898989" d="M9.199,36.157c0,0.386,0.716,1.525,3.817,1.438l12.541,0c3.096,0.089,3.816,-1.136,3.816,-1.438l0,-1.758L9.199,34.399L9.199,36.157z"/>
              </g>
              <g>
                <rect x="9.199" height="0.775" y="33.886" width="20.176" fill="#3D3D3D"/>
                <rect x="9.199" height="0.77" y="34.663" width="20.176" fill="#666666"/>
                <rect x="9.199" height="0.774" y="35.431" width="20.176" fill="#777777"/>
              </g>
            </g>
          </g>
        </g>
        <g transform="matrix(1, 0, 0, 1, 134.815, 21.8738)">
          <text style="font-family: OCRA; font-size: 9.36px; font-weight: 700; white-space: pre;">+</text>
        </g>
        <g transform="matrix(1, 0, 0, 1, 12.1187, 21.3347)">
          <text style="font-family: OCRA; font-size: 9.36px; white-space: pre;">-</text>
        </g>
      </g>
    </g>
  </g>
</svg>